<?xml version="1.0" encoding="UTF-8" standalone="no"?>
<!-- Created with Inkscape (http://www.inkscape.org/) -->

<svg
   xmlns:osb="http://www.openswatchbook.org/uri/2009/osb"
   xmlns:dc="http://purl.org/dc/elements/1.1/"
   xmlns:cc="http://creativecommons.org/ns#"
   xmlns:rdf="http://www.w3.org/1999/02/22-rdf-syntax-ns#"
   xmlns:svg="http://www.w3.org/2000/svg"
   xmlns="http://www.w3.org/2000/svg"
   xmlns:xlink="http://www.w3.org/1999/xlink"
   xmlns:sodipodi="http://sodipodi.sourceforge.net/DTD/sodipodi-0.dtd"
   xmlns:inkscape="http://www.inkscape.org/namespaces/inkscape"
   width="48"
   height="48"
   viewBox="0 0 12.7 12.7"
   version="1.1"
   id="svg8"
   inkscape:version="0.92.3 (unknown)"
   sodipodi:docname="logo.svg"
   inkscape:export-filename="/home/cedric/git/upkbs/somnus-app/resources/icon.png"
   inkscape:export-xdpi="1536"
   inkscape:export-ydpi="1536">
  <defs
     id="defs2">
    <linearGradient
       id="linearGradient4712"
       osb:paint="gradient">
      <stop
         style="stop-color:#fcfcfc;stop-opacity:1"
         offset="0"
         id="stop4708" />
      <stop
         style="stop-color:#ffffff;stop-opacity:0.49803922"
         offset="1"
         id="stop4710" />
    </linearGradient>
    <linearGradient
       inkscape:collect="always"
       xlink:href="#linearGradient4712"
       id="linearGradient840"
       gradientUnits="userSpaceOnUse"
       gradientTransform="translate(-1.5874999,0.79374999)"
       x1="8.4666672"
       y1="294.88333"
       x2="14.2875"
       y2="285.35834" />
  </defs>
  <sodipodi:namedview
     id="base"
     pagecolor="#464646"
     bordercolor="#666666"
     borderopacity="1.0"
     inkscape:pageopacity="0"
     inkscape:pageshadow="2"
     inkscape:zoom="7.9195959"
     inkscape:cx="23.228596"
     inkscape:cy="16.428597"
     inkscape:document-units="mm"
     inkscape:current-layer="layer5"
     showgrid="true"
     units="px"
     inkscape:window-width="3710"
     inkscape:window-height="2112"
     inkscape:window-x="130"
     inkscape:window-y="48"
     inkscape:window-maximized="1"
     inkscape:pagecheckerboard="false"
     inkscape:showpageshadow="true"
     borderlayer="false"
     showborder="true"
     showguides="false"
     inkscape:snap-grids="true"
     inkscape:snap-to-guides="true">
    <inkscape:grid
       type="xygrid"
       id="grid3699"
       color="#8c8c8c"
       opacity="0.1254902"
       empcolor="#8c8c8c"
       empopacity="0.25098039"
       dotted="false"
       spacingx="0.52916667"
       spacingy="0.52916667"
       empspacing="4"
       snapvisiblegridlinesonly="false" />
  </sodipodi:namedview>
  <metadata
     id="metadata5">
    <rdf:RDF>
      <cc:Work
         rdf:about="">
        <dc:format>image/svg+xml</dc:format>
        <dc:type
           rdf:resource="http://purl.org/dc/dcmitype/StillImage" />
        <dc:title />
      </cc:Work>
    </rdf:RDF>
  </metadata>
  <g
     inkscape:groupmode="layer"
     id="layer2"
     inkscape:label="Wiggly lines"
     style="display:none"
     sodipodi:insensitive="true">
    <path
       transform="translate(0,-284.29998)"
       style="fill:none;fill-opacity:1;stroke:#a8d729;stroke-width:0.5291667;stroke-linecap:round;stroke-linejoin:miter;stroke-miterlimit:4;stroke-dasharray:none;stroke-opacity:1"
       d="m 0.52916663,290.65 c 0,0 0.4409722,-0.28358 0.88194437,0 0,0 0.4409722,0.40735 0.8819445,0 0.4509913,-0.29002 0.8819443,1e-5 0.8819443,1e-5 0,0 0.4409721,0.28359 0.8819446,10e-6 0.4409718,-0.28358 0.8819412,0 0.8819443,0 0.4509913,0.29002 0.8819444,0 0.8819444,0"
       id="path3703-2-4"
       inkscape:connector-curvature="0"
       sodipodi:nodetypes="ccccccc" />
    <path
       transform="translate(0,-284.29998)"
       style="fill:none;fill-opacity:1;stroke:#a8d729;stroke-width:0.5291667;stroke-linecap:round;stroke-linejoin:miter;stroke-miterlimit:4;stroke-dasharray:none;stroke-opacity:1"
       d="m 1.5875,288.5333 c 0,0 0.4762499,-0.28358 0.9525,0 0,0 0.4762499,0.40735 0.9525,0 0.4870706,-0.29002 0.9524998,10e-6 0.9524998,10e-6 0,0 0.4762497,0.28359 0.9525002,1e-5 0.4762495,-0.28358 0.9524965,0 0.9524998,0"
       id="path3703-2-4-8"
       inkscape:connector-curvature="0"
       sodipodi:nodetypes="cccccc" />
    <path
       transform="translate(0,-284.29998)"
       style="fill:none;fill-opacity:1;stroke:#a8d729;stroke-width:0.5291667;stroke-linecap:round;stroke-linejoin:miter;stroke-miterlimit:4;stroke-dasharray:none;stroke-opacity:1"
       d="m 4.2333331,286.41666 c 0,0 0.4762499,-0.28358 0.9525,0 0,0 0.4762499,0.40735 0.9525,0 0.4870706,-0.29002 0.9524999,1e-5 0.9524999,1e-5 0,0 0.4762497,0.28359 0.9524997,10e-6"
       id="path3703-2-4-8-90"
       inkscape:connector-curvature="0"
       sodipodi:nodetypes="ccccc" />
    <path
       transform="translate(0,-284.29998)"
       style="fill:none;fill-opacity:1;stroke:#a8d729;stroke-width:0.5291667;stroke-linecap:round;stroke-linejoin:miter;stroke-miterlimit:4;stroke-dasharray:none;stroke-opacity:1"
       d="m 1.5874999,292.76666 c 0,0 0.4762499,-0.28358 0.9525,0 0,0 0.4762499,0.40735 0.9525,0 0.4870706,-0.29002 0.9524999,10e-6 0.9524999,10e-6 0,0 0.4762495,0.28359 0.9525,1e-5 0.4762498,-0.28358 0.9524966,0 0.9525,0"
       id="path3703-2-4-8-2"
       inkscape:connector-curvature="0"
       sodipodi:nodetypes="cccccc" />
    <path
       transform="translate(0,-284.29998)"
       style="fill:none;fill-opacity:1;stroke:#a8d729;stroke-width:0.5291667;stroke-linecap:round;stroke-linejoin:miter;stroke-miterlimit:4;stroke-dasharray:none;stroke-opacity:1"
       d="m 4.2333331,294.88332 c 0,0 0.4762497,-0.28358 0.9525,0 0,0 0.47625,0.40735 0.9525,0 0.4870706,-0.29002 0.9525,10e-6 0.9525,10e-6 0,0 0.4762494,0.28359 0.9524991,10e-6"
       id="path3703-2-4-8-90-7"
       inkscape:connector-curvature="0"
       sodipodi:nodetypes="ccccc" />
  </g>
  <g
     inkscape:groupmode="layer"
     id="layer5"
     inkscape:label="Disk"
     style="display:inline">
    <rect
       style="fill:#3aaeaa;fill-opacity:1;stroke:none;stroke-width:0.35277778;stroke-linecap:butt;stroke-miterlimit:4;stroke-dasharray:none;stroke-opacity:1"
       id="rect858"
       width="16.933334"
       height="16.933334"
       x="-2.1166668"
       y="-2.116667"
       ry="0"
       inkscape:export-filename="/home/cedric/git/upkbs/somnus-app/resources/icon.png"
       inkscape:export-xdpi="1536"
       inkscape:export-ydpi="1536" />
  </g>
  <g
     inkscape:groupmode="layer"
     id="layer3"
     inkscape:label="Straight lines">
    <path
       style="fill:none;fill-rule:evenodd;stroke:#ffffff;stroke-width:0.26458333;stroke-linecap:butt;stroke-linejoin:miter;stroke-miterlimit:4;stroke-dasharray:none;stroke-opacity:1"
       d="M 0,7.1437499 H 5.2916666"
       id="path33"
       inkscape:connector-curvature="0" />
    <path
       style="fill:none;fill-rule:evenodd;stroke:#ffffff;stroke-width:0.26458333;stroke-linecap:butt;stroke-linejoin:miter;stroke-miterlimit:4;stroke-dasharray:none;stroke-opacity:1"
       d="M 0.2645833,8.2020834 H 5.2916667"
       id="path35"
       inkscape:connector-curvature="0" />
    <path
       style="fill:none;fill-rule:evenodd;stroke:#ffffff;stroke-width:0.26458333;stroke-linecap:butt;stroke-linejoin:miter;stroke-miterlimit:4;stroke-dasharray:none;stroke-opacity:1"
       d="M 1.8520835,10.318751 H 6.0854167"
       id="path37"
       inkscape:connector-curvature="0" />
    <path
       style="fill:none;fill-rule:evenodd;stroke:#ffffff;stroke-width:0.26458333;stroke-linecap:butt;stroke-linejoin:miter;stroke-miterlimit:4;stroke-dasharray:none;stroke-opacity:1"
       d="M 0.79374997,9.2604166 H 5.5562501"
       id="path35-3"
       inkscape:connector-curvature="0" />
    <path
       style="fill:none;fill-rule:evenodd;stroke:#ffffff;stroke-width:0.26458333;stroke-linecap:butt;stroke-linejoin:miter;stroke-miterlimit:4;stroke-dasharray:none;stroke-opacity:1"
       d="M 3.7041665,11.377082 H 6.8791667"
       id="path37-5"
       inkscape:connector-curvature="0" />
  </g>
  <g
     inkscape:groupmode="layer"
     id="layer4"
     inkscape:label="Solid moon">
    <path
       style="fill:#ffffff;fill-opacity:1;fill-rule:evenodd;stroke:none;stroke-width:0.26458333;stroke-linecap:butt;stroke-linejoin:miter;stroke-miterlimit:4;stroke-dasharray:none;stroke-opacity:1"
       d="M 0,6.3499999 H 5.2916666 C 5.2916667,5.2916666 5.8208333,2.1166666 7.9375,0.52916663 2.6458333,0.52916663 0,4.2333333 0,6.3499999 Z"
       id="path4568"
       inkscape:connector-curvature="0"
       sodipodi:nodetypes="cccc" />
  </g>
  <g
     inkscape:label="Feather"
     inkscape:groupmode="layer"
     id="layer1"
     transform="translate(0,-284.29999)">
    <path
       style="fill:url(#linearGradient840);fill-opacity:1;stroke:none;stroke-width:0.26458332px;stroke-linecap:butt;stroke-linejoin:miter;stroke-opacity:0"
       d="m 6.879167,295.67706 3.704167,-6.87917 c -1.2756709,1.55915 -3.1750013,4.76251 -3.1750013,4.76251 -0.5291657,0 -0.1883367,-1.43671 0,-2.11667 0.8968737,-2.66521 3.4841143,-4.38117 5.2916673,-5.29167 0,0 -0.514234,2.70083 -1.058333,4.23333 -0.263928,0.74337 -1.029707,2.08805 -1.5875,2.64584 -0.2788953,0.2789 -1.5875009,0.52916 -1.5875009,0.52916 l -1.0583334,1.58751 z"
       id="path4706"
       inkscape:connector-curvature="0"
       sodipodi:nodetypes="cccccssccc"
       inkscape:transform-center-x="-2.9065561"
       inkscape:transform-center-y="-4.7440341" />
  </g>
</svg>
